<?xml version="1.0" standalone="no"?>
<!DOCTYPE svg PUBLIC "-//W3C//DTD SVG 20010904//EN"
 "http://www.w3.org/TR/2001/REC-SVG-20010904/DTD/svg10.dtd">
<svg version="1.0" xmlns="http://www.w3.org/2000/svg"
 width="418.000000pt" height="418.000000pt" viewBox="0 0 418.000000 418.000000"
 preserveAspectRatio="xMidYMid meet">
<metadata>
Created by potrace 1.11, written by Peter Selinger 2001-2013
</metadata>
<g transform="translate(0.000000,418.000000) scale(0.100000,-0.100000)"
fill="#000000" stroke="none">
<path d="M2270 4165 c-111 -20 -163 -42 -342 -146 -68 -40 -143 -83 -167 -97
-25 -14 -68 -38 -95 -55 -28 -16 -64 -37 -81 -47 -62 -35 -161 -91 -175 -100
-14 -9 -82 -48 -155 -90 -209 -119 -448 -259 -480 -280 -56 -38 -133 -120
-177 -187 -44 -66 -93 -195 -103 -271 -9 -67 -9 -1542 0 -1602 21 -140 94
-281 200 -385 67 -66 224 -164 598 -374 62 -35 91 -52 415 -240 372 -216 409
-234 503 -261 58 -16 96 -19 193 -17 157 4 219 25 431 147 88 51 180 104 204
117 24 14 103 60 175 102 73 43 138 81 146 85 8 4 24 12 35 19 11 7 67 38 123
71 61 34 117 75 137 99 142 165 -15 417 -225 363 -38 -10 -530 -286 -727 -408
-34 -21 -64 -38 -67 -38 -2 0 -37 -19 -78 -43 -95 -57 -125 -66 -191 -61 -44
3 -72 13 -132 49 -42 25 -78 45 -80 45 -2 0 -80 45 -174 100 -93 55 -173 100
-177 100 -3 0 -18 8 -32 19 -15 10 -47 29 -72 43 -25 14 -85 49 -135 78 -101
59 -84 49 -337 195 -193 110 -234 142 -265 204 -17 34 -18 85 -18 791 l0 755
24 49 c24 49 65 84 159 137 26 15 148 85 272 157 124 71 244 140 266 153 23
13 135 78 248 144 114 66 232 135 264 153 183 106 223 108 383 17 57 -33 112
-64 121 -70 9 -5 30 -17 46 -26 25 -14 158 -91 222 -129 8 -5 58 -34 110 -63
52 -30 115 -67 140 -81 175 -101 215 -120 267 -124 175 -15 296 168 217 326
-32 64 -36 67 -384 267 -151 87 -327 188 -390 225 -200 117 -263 148 -342 170
-91 25 -208 31 -298 15z"/>
</g>
</svg>
